<svg width="26" height="26" viewBox="0 0 26 26" fill="none" xmlns="http://www.w3.org/2000/svg">
    <rect x="1" y="1" width="24" height="24" rx="12" stroke="#747B8B"/>
    <path fill-rule="evenodd" clip-rule="evenodd"
          d="M18.1692 9.28033C18.4621 8.98744 18.4621 8.51256 18.1692 8.21967C17.8763 7.92678 17.4015 7.92678 17.1086 8.21967L13.1944 12.1338L9.28033 8.21967C8.98744 7.92678 8.51256 7.92678 8.21967 8.21967C7.92678 8.51256 7.92678 8.98744 8.21967 9.28033L12.1338 13.1944L8.21967 17.1086C7.92678 17.4015 7.92678 17.8763 8.21967 18.1692C8.51256 18.4621 8.98744 18.4621 9.28033 18.1692L13.1944 14.2551L17.1086 18.1692C17.4015 18.4621 17.8763 18.4621 18.1692 18.1692C18.4621 17.8763 18.4621 17.4015 18.1692 17.1086L14.2551 13.1944L18.1692 9.28033Z"
          fill="#747B8B"/>
</svg>
